#define dropbox_width 16
#define dropbox_height 16
static unsigned char dropbox_bits[] = {
   0x00, 0x00, 0x30, 0x08, 0x78, 0x3e, 0xfe, 0x7f, 0x7e, 0x7e, 0x1c, 0x38,
   0x08, 0x10, 0x1c, 0x38, 0x7e, 0x7e, 0xfe, 0x7f, 0xf8, 0x1d, 0xd0, 0x1b,
0xf0, 0x0f, 0xe0, 0x07, 0x80, 0x01, 0x00, 0x00 };
