#define LEFT_width 12
#define LEFT_height 24
static unsigned char LEFT_bits[] = {
   0x00, 0x08, 0x00, 0x0c, 0x00, 0x0e, 0x00, 0x0f, 0x80, 0x0f, 0xc0, 0x0f,
   0xe0, 0x0f, 0xf0, 0x0f, 0xf8, 0x0f, 0xfc, 0x0f, 0xfe, 0x0f, 0xff, 0x0f,
   0xff, 0x0f, 0xfe, 0x0f, 0xfc, 0x0f, 0xf8, 0x0f, 0xf0, 0x0f, 0xe0, 0x0f,
0xc0, 0x0f, 0x80, 0x0f, 0x00, 0x0f, 0x00, 0x0e, 0x00, 0x0c, 0x00, 0x08 };
