#define RIGHT_width 12
#define RIGHT_height 24
static unsigned char RIGHT_bits[] = {
   0x01, 0x00, 0x03, 0x00, 0x07, 0x00, 0x0f, 0x00, 0x1f, 0x00, 0x3f, 0x00,
   0x7f, 0x00, 0xff, 0x00, 0xff, 0x01, 0xff, 0x03, 0xff, 0x07, 0xff, 0x0f,
   0xff, 0x0f, 0xff, 0x07, 0xff, 0x03, 0xff, 0x01, 0xff, 0x00, 0x7f, 0x00,
0x3f, 0x00, 0x1f, 0x00, 0x0f, 0x00, 0x07, 0x00, 0x03, 0x00, 0x01, 0x00 };
