#define solid_width 8
#define solid_height 8
static unsigned char solid_bits[] = {
   0x3f, 0x7f, 0xff, 0x3f, 0x7f, 0xff, 
0x76, 0x24};