#define tud_width 8
#define tud_height 8
static unsigned char tud_bits[] = {
   0x7c, 0x6e, 0x3b, 0x2f, 0x7d, 0x3f, 
0x1c, 0x3c};
